<?xml version="1.0" standalone="no"?>
<!DOCTYPE svg PUBLIC "-//W3C//DTD SVG 20010904//EN"
 "http://www.w3.org/TR/2001/REC-SVG-20010904/DTD/svg10.dtd">
<svg version="1.0" xmlns="http://www.w3.org/2000/svg"
 width="666.000000pt" height="666.000000pt" viewBox="0 0 666.000000 666.000000"
 preserveAspectRatio="xMidYMid meet">
<metadata>
Created by potrace 1.11, written by Peter Selinger 2001-2013
</metadata>
<g transform="translate(0.000000,666.000000) scale(0.100000,-0.100000)"
fill="#000000" stroke="none">
<path d="M3125 6653 c-229 -16 -422 -50 -630 -109 -316 -91 -611 -232 -867
-416 -157 -112 -348 -275 -348 -297 0 -8 117 -120 129 -124 4 -1 43 30 85 68
339 304 773 533 1176 621 89 19 310 53 390 60 161 12 475 7 565 -10 11 -2 47
-7 80 -11 32 -3 62 -8 65 -10 3 -2 21 -6 40 -9 19 -3 75 -15 123 -26 428 -102
806 -309 1187 -649 l44 -39 68 66 69 67 -63 58 c-96 90 -232 197 -343 271 -55
37 -105 70 -110 74 -55 38 -281 152 -389 197 -171 71 -433 150 -556 169 -19 3
-57 10 -85 15 -27 5 -79 12 -115 16 -36 4 -74 9 -85 11 -24 6 -374 11 -430 7z"/>
<path d="M3217 5804 c-1 -1 -43 -5 -94 -8 -50 -4 -102 -9 -115 -11 -12 -3 -40
-7 -63 -11 -32 -4 -186 -40 -255 -58 -124 -34 -355 -140 -482 -222 -87 -56
-214 -154 -283 -219 l-49 -46 54 -52 c89 -85 84 -83 122 -48 184 167 430 314
648 387 47 15 90 29 95 30 6 1 37 9 70 17 33 9 83 19 110 23 28 3 59 9 70 11
40 10 402 11 465 2 109 -15 122 -18 225 -43 127 -31 246 -75 360 -133 88 -44
259 -151 306 -191 13 -11 54 -45 91 -76 l67 -56 70 62 70 63 -22 23 c-48 51
-187 163 -282 227 -109 73 -297 168 -415 210 -88 31 -276 80 -340 89 -25 3
-56 8 -69 11 -51 10 -346 25 -354 19z"/>
<path d="M3145 4943 c-169 -20 -354 -89 -505 -189 -70 -46 -168 -130 -160
-137 3 -2 35 -29 73 -60 37 -32 71 -57 76 -57 5 0 15 7 22 16 21 25 147 108
209 136 221 103 497 121 735 48 71 -22 231 -101 263 -129 9 -9 34 -29 55 -44
43 -32 33 -36 129 46 l57 49 -44 38 c-165 143 -361 237 -570 274 -73 12 -266
17 -340 9z"/>
<path d="M3214 4145 c-49 -11 -137 -55 -149 -75 -3 -5 47 -61 111 -125 l117
-117 113 113 114 113 -21 22 c-30 32 -126 72 -184 77 -27 2 -73 -1 -101 -8z"/>
<path d="M2938 3575 c-1 -1 -46 -5 -98 -9 -105 -7 -179 -14 -225 -21 -92 -14
-117 -18 -185 -30 -119 -22 -130 -24 -230 -51 -219 -59 -374 -135 -509 -249
-65 -55 -109 -159 -106 -250 3 -67 15 -241 19 -263 2 -9 7 -48 10 -87 6 -61
28 -218 42 -295 5 -30 24 -143 31 -185 13 -79 75 -302 108 -385 123 -314 320
-567 570 -731 199 -131 498 -231 755 -255 187 -16 457 -7 620 21 217 38 468
146 631 271 72 55 195 178 231 229 26 39 38 45 273 127 545 189 823 350 988
571 29 40 63 92 75 117 89 188 52 464 -86 640 -116 147 -326 235 -532 224
-110 -7 -306 -56 -432 -109 -16 -6 -16 -4 -3 22 7 15 16 42 20 58 5 26 3 24
-18 -13 -50 -93 -135 -156 -300 -221 -279 -111 -666 -165 -1182 -165 -163 0
-422 11 -464 19 -9 1 -47 6 -86 10 -38 4 -77 9 -87 10 -9 2 -38 6 -65 10 -92
12 -258 46 -373 77 -293 77 -489 181 -544 288 -24 47 10 108 99 175 84 64 334
162 509 200 115 25 229 47 290 55 41 6 84 13 95 15 11 2 51 7 88 11 37 4 82 8
98 10 210 23 792 22 936 -1 13 -2 49 -6 79 -9 30 -4 66 -8 80 -11 14 -2 42 -6
63 -9 93 -14 118 -19 214 -42 296 -69 484 -170 548 -293 28 -54 33 -35 6 25
-27 59 -73 107 -154 160 -133 88 -310 164 -497 214 -91 24 -351 77 -425 85
-33 4 -71 9 -85 11 -14 1 -56 6 -95 9 -38 4 -86 9 -105 11 -40 5 -587 14 -592
9z m2467 -714 c99 -18 213 -83 282 -161 25 -28 75 -126 91 -180 26 -84 30
-192 11 -264 -48 -180 -272 -388 -644 -598 -44 -25 -96 -55 -115 -66 -19 -11
-67 -38 -107 -61 -39 -22 -89 -50 -110 -62 -21 -12 -58 -33 -82 -47 -24 -14
-42 -21 -40 -16 2 5 30 61 61 124 71 142 110 258 153 454 51 229 90 327 186
458 43 60 113 120 177 152 79 40 218 11 299 -61 66 -60 87 -106 88 -189 0 -67
-2 -75 -40 -130 -77 -112 -222 -238 -397 -345 -190 -116 -229 -142 -224 -146
14 -14 354 154 473 233 118 79 242 202 279 279 25 52 29 71 28 140 -2 90 -21
143 -80 221 -53 70 -102 111 -169 144 -120 60 -223 60 -345 2 -110 -53 -215
-189 -268 -347 -19 -55 -57 -194 -66 -241 -31 -150 -107 -362 -182 -500 -187
-347 -439 -551 -804 -647 -279 -74 -649 -80 -949 -16 -671 145 -1063 634
-1210 1509 -18 102 -26 159 -35 252 -3 27 -3 27 48 -16 71 -61 133 -98 239
-145 79 -34 290 -102 360 -115 23 -4 98 -19 107 -21 3 -1 28 -5 55 -10 28 -4
58 -9 69 -11 10 -2 44 -6 75 -10 31 -3 64 -8 74 -10 137 -25 761 -25 962 1 17
2 53 7 80 10 46 6 180 26 265 40 75 13 284 67 382 99 179 59 339 142 427 221
42 38 152 71 273 81 40 4 74 7 75 9 8 6 198 -5 248 -14z"/>
<path d="M3232 2198 c-20 -26 -155 -450 -144 -457 5 -3 44 -5 86 -4 42 0 76
-2 76 -5 0 -4 -36 -113 -81 -242 -44 -129 -75 -230 -70 -225 6 6 40 51 75 100
36 50 69 95 73 100 19 24 271 373 288 398 l17 27 -91 0 c-50 0 -91 2 -91 5 0
3 34 72 75 153 41 81 75 151 75 155 0 13 -277 8 -288 -5z"/>
<path d="M1405 2160 c-337 -117 -544 -249 -649 -413 -58 -91 -107 -293 -76
-312 5 -3 10 -15 10 -25 0 -96 212 -372 395 -511 286 -219 682 -393 1108 -485
44 -10 171 -34 201 -39 17 -3 42 -7 56 -10 14 -2 44 -7 68 -10 23 -3 61 -7 85
-10 243 -31 392 -39 737 -39 273 -1 500 7 570 18 14 3 56 7 93 11 37 3 76 8
85 10 9 1 40 6 67 9 28 4 61 8 75 11 14 3 41 7 60 10 135 22 293 58 438 99
543 157 955 451 1091 780 48 117 48 154 0 56 -49 -100 -94 -163 -175 -245
-159 -162 -378 -290 -662 -386 -82 -28 -332 -94 -397 -104 -16 -3 -41 -7 -55
-10 -14 -3 -41 -7 -60 -10 -19 -3 -42 -8 -50 -10 -8 -2 -42 -7 -75 -10 -33 -4
-67 -8 -75 -10 -8 -2 -51 -7 -95 -10 -44 -4 -98 -9 -120 -11 -300 -32 -939
-22 -1335 22 -25 3 -63 7 -85 9 -148 17 -189 23 -342 51 -82 15 -333 79 -433
110 -164 52 -295 105 -450 185 -356 184 -620 455 -621 637 -1 106 71 245 174
338 108 98 321 221 550 319 48 21 87 39 87 41 0 9 -35 -1 -195 -56z"/>
<path d="M1137 734 c12 -9 57 -44 101 -78 324 -256 783 -462 1247 -560 148
-32 282 -54 430 -70 253 -29 640 -25 900 9 22 2 60 7 85 10 25 3 56 7 70 10
14 3 36 7 50 10 14 3 36 7 50 10 14 2 39 7 55 10 17 3 41 7 55 10 14 4 39 9
55 12 17 3 93 23 170 45 452 128 844 332 1080 561 44 43 25 38 -50 -13 -215
-145 -610 -303 -930 -371 -33 -7 -64 -14 -70 -15 -45 -12 -251 -50 -324 -60
-19 -2 -46 -6 -60 -8 -26 -4 -90 -12 -166 -21 -49 -5 -166 -14 -260 -20 -88
-6 -500 -6 -580 -1 -33 3 -101 7 -150 10 -50 4 -99 8 -110 10 -11 2 -47 7 -80
10 -33 4 -87 11 -120 16 -33 5 -78 12 -100 16 -22 3 -70 12 -107 20 -37 7 -82
16 -100 19 -67 12 -276 68 -383 102 -238 77 -479 182 -669 292 -83 47 -139 70
-89 35z"/>
</g>
</svg>
